<?xml version="1.0" standalone="no"?>
<!DOCTYPE svg PUBLIC "-//W3C//DTD SVG 20010904//EN"
 "http://www.w3.org/TR/2001/REC-SVG-20010904/DTD/svg10.dtd">
<svg version="1.0" xmlns="http://www.w3.org/2000/svg"
 width="900.000000pt" height="320.000000pt" viewBox="0 0 900.000000 320.000000"
 preserveAspectRatio="xMidYMid meet">

<g transform="translate(0.000000,320.000000) scale(0.100000,-0.100000)"
fill="#000000" stroke="none">
<path d="M1710 2990 c-9 -6 -10 -10 -3 -10 6 0 15 5 18 10 8 12 4 12 -15 0z"/>
<path d="M3006 2532 c-3 -5 1 -9 9 -9 8 0 12 4 9 9 -3 4 -7 8 -9 8 -2 0 -6 -4
-9 -8z"/>
<path d="M3728 2274 c-5 -4 -8 -124 -8 -266 l0 -258 95 0 c248 0 359 82 359
265 0 76 -18 128 -60 175 -55 61 -119 82 -259 88 -66 2 -123 1 -127 -4z m259
-97 c67 -35 99 -105 90 -193 -11 -103 -66 -147 -187 -148 l-75 -1 -3 170 c-1
93 0 176 3 184 7 18 130 9 172 -12z"/>
<path d="M4715 2271 c-29 -6 -30 -8 -33 -68 -3 -59 -4 -62 -30 -65 -22 -2 -28
-9 -30 -35 -3 -31 -1 -33 26 -33 l30 0 4 -127 c5 -171 20 -193 133 -193 51 0
55 2 54 23 -1 37 -13 52 -44 54 -48 4 -56 25 -53 138 l3 100 49 3 c44 3 48 5
42 25 -3 12 -6 27 -6 34 0 7 -18 13 -42 15 l-43 3 -3 68 c-3 71 -2 70 -57 58z"/>
<path d="M4310 2137 c-42 -12 -45 -15 -45 -47 0 -39 -2 -38 84 -21 66 14 116
1 124 -31 8 -30 3 -35 -50 -43 -72 -11 -150 -43 -173 -72 -14 -18 -20 -41 -20
-73 0 -42 4 -52 31 -74 41 -35 116 -36 175 -2 l42 24 11 -25 c9 -20 17 -24 44
-21 l32 3 3 140 c4 213 -14 244 -148 251 -36 2 -85 -2 -110 -9z m168 -231 c4
-46 -16 -72 -69 -88 -32 -9 -42 -8 -64 6 -51 33 -24 86 57 111 62 20 72 16 76
-29z"/>
<path d="M5000 2137 c-42 -12 -45 -15 -48 -51 -3 -36 -2 -38 20 -32 117 33
158 31 184 -9 21 -33 13 -41 -48 -49 -68 -9 -144 -42 -168 -74 -32 -39 -27
-106 9 -143 25 -25 37 -29 82 -29 37 0 64 7 94 25 44 25 55 24 55 -7 0 -16 6
-19 38 -16 l37 3 3 136 c3 153 -7 200 -51 233 -34 25 -139 31 -207 13z m167
-224 c6 -46 -10 -69 -62 -89 -39 -14 -49 -15 -70 -4 -25 13 -34 52 -17 76 15
23 97 54 131 51 9 -1 16 -16 18 -34z"/>
<path d="M1265 2120 c3 -5 8 -10 11 -10 2 0 4 5 4 10 0 6 -5 10 -11 10 -5 0
-7 -4 -4 -10z"/>
<path d="M1340 2059 c0 -5 5 -7 10 -4 6 3 10 8 10 11 0 2 -4 4 -10 4 -5 0 -10
-5 -10 -11z"/>
<path d="M868 1563 c7 -3 16 -2 19 1 4 3 -2 6 -13 5 -11 0 -14 -3 -6 -6z"/>
<path d="M945 1491 c-3 -5 -1 -12 5 -16 5 -3 10 1 10 9 0 18 -6 21 -15 7z"/>
<path d="M4523 1440 c-50 -20 -32 -100 23 -100 51 0 73 66 32 94 -25 18 -25
18 -55 6z"/>
<path d="M3805 1400 c-66 -22 -95 -65 -95 -142 0 -54 2 -59 38 -88 20 -17 64
-44 97 -58 96 -43 105 -52 105 -94 0 -31 -5 -40 -30 -53 -40 -20 -79 -19 -145
6 -31 12 -59 18 -62 15 -3 -3 -6 -22 -7 -42 -1 -33 2 -38 34 -50 19 -7 70 -13
113 -13 131 -2 188 44 189 151 0 71 -21 94 -137 153 -92 46 -100 53 -103 81
-2 19 3 38 13 48 21 20 88 21 145 1 23 -8 44 -15 45 -15 2 0 5 16 7 36 3 29 0
39 -19 51 -28 19 -146 26 -188 13z"/>
<path d="M1691 1284 c0 -11 3 -14 6 -6 3 7 2 16 -1 19 -3 4 -6 -2 -5 -13z"/>
<path d="M3166 1292 c-3 -6 -1 -14 5 -17 14 -9 20 -2 10 14 -6 8 -11 9 -15 3z"/>
<path d="M4225 1268 c-89 -33 -129 -101 -123 -207 7 -122 71 -184 189 -182 77
1 129 22 129 53 0 43 -11 49 -62 31 -93 -34 -168 17 -168 114 0 102 78 149
177 108 20 -8 37 -14 38 -13 1 2 5 18 8 35 5 27 2 36 -16 48 -30 20 -134 28
-172 13z"/>
<path d="M4799 1271 c-82 -27 -124 -93 -124 -196 0 -92 29 -145 94 -177 59
-29 149 -28 213 1 41 20 44 23 40 56 -5 40 -5 40 -35 21 -37 -25 -109 -37
-150 -25 -39 10 -61 36 -72 82 l-7 27 137 0 138 0 -6 49 c-8 64 -28 103 -71
136 -37 28 -112 41 -157 26z m111 -81 c11 -11 20 -24 20 -29 0 -5 3 -16 6 -25
5 -14 -6 -16 -80 -16 -80 0 -86 1 -86 20 0 58 97 93 140 50z"/>
<path d="M5286 1273 c-11 -3 -37 -16 -57 -29 -39 -24 -49 -23 -49 8 0 14 -8
18 -40 18 l-40 0 0 -195 0 -195 45 0 45 0 0 134 0 135 30 21 c42 30 92 36 113
15 14 -14 17 -39 17 -161 l0 -144 45 0 45 0 0 160 c0 102 -4 168 -12 185 -20
45 -78 64 -142 48z"/>
<path d="M5637 1266 c-77 -28 -117 -95 -117 -192 1 -140 95 -220 229 -194 73
14 94 27 87 53 -3 12 -6 30 -6 40 0 17 -1 17 -26 0 -17 -10 -47 -17 -80 -17
-45 -1 -58 3 -80 26 -51 50 -41 177 15 208 28 14 102 12 131 -5 37 -21 40 -19
40 25 0 30 -5 42 -21 51 -34 18 -130 21 -172 5z"/>
<path d="M6012 1272 c-12 -4 -38 -20 -57 -35 -111 -89 -87 -298 40 -347 48
-19 148 -14 199 9 46 20 51 28 40 68 l-6 22 -37 -18 c-33 -17 -81 -25 -134
-22 -28 2 -77 56 -77 85 l0 26 130 0 130 0 -1 38 c-2 126 -109 207 -227 174z
m113 -87 c14 -13 25 -33 25 -45 0 -19 -6 -20 -85 -20 -76 0 -85 2 -85 19 0 10
11 30 25 45 32 35 86 36 120 1z"/>
<path d="M4500 1075 l0 -195 45 0 45 0 0 195 0 195 -45 0 -45 0 0 -195z"/>
<path d="M1615 1220 c-3 -5 -1 -10 4 -10 6 0 11 5 11 10 0 6 -2 10 -4 10 -3 0
-8 -4 -11 -10z"/>
<path d="M696 1187 c3 -10 9 -15 12 -12 3 3 0 11 -7 18 -10 9 -11 8 -5 -6z"/>
<path d="M2864 949 c-3 -6 -2 -15 3 -20 5 -5 9 -1 9 11 0 23 -2 24 -12 9z"/>
<path d="M1040 873 c6 -13 20 -27 33 -33 20 -10 21 -10 4 4 -10 8 -25 23 -33
33 -14 17 -14 16 -4 -4z"/>
<path d="M2890 825 c-19 -22 -8 -25 13 -3 9 10 13 18 8 18 -5 0 -14 -7 -21
-15z"/>
<path d="M2695 659 c-11 -16 -1 -19 13 -3 7 8 8 14 3 14 -5 0 -13 -5 -16 -11z"/>
<path d="M2415 610 c3 -5 8 -10 11 -10 2 0 4 5 4 10 0 6 -5 10 -11 10 -5 0 -7
-4 -4 -10z"/>
<path d="M2505 550 c3 -5 8 -10 11 -10 2 0 4 5 4 10 0 6 -5 10 -11 10 -5 0 -7
-4 -4 -10z"/>
<path d="M505 470 c3 -5 8 -10 11 -10 2 0 4 5 4 10 0 6 -5 10 -11 10 -5 0 -7
-4 -4 -10z"/>
</g>
</svg>
